<?xml version="1.0" standalone="no"?>
<!DOCTYPE svg PUBLIC "-//W3C//DTD SVG 20010904//EN"
 "http://www.w3.org/TR/2001/REC-SVG-20010904/DTD/svg10.dtd">
<svg version="1.0" xmlns="http://www.w3.org/2000/svg"
 width="1024.000000pt" height="1024.000000pt" viewBox="0 0 1024.000000 1024.000000"
 preserveAspectRatio="xMidYMid meet">

<g transform="translate(0.000000,1024.000000) scale(0.100000,-0.100000)"
fill="#000000" stroke="none">
<path d="M4930 10130 c-671 -26 -1283 -171 -1890 -450 -1018 -466 -1827 -1253
-2344 -2280 -141 -279 -234 -508 -316 -773 -263 -858 -287 -1774 -69 -2652
163 -655 440 -1243 833 -1770 280 -375 658 -754 1010 -1014 355 -262 740 -481
1106 -630 179 -73 191 -78 337 -125 354 -115 701 -186 1079 -220 940 -86 1821
68 2629 459 1361 658 2349 1883 2691 3335 172 731 178 1505 18 2240 -264 1212
-986 2288 -2019 3007 -731 509 -1681 834 -2535 868 -298 11 -339 12 -530 5z
m-252 -1803 c117 -353 230 -675 250 -716 120 -242 325 -280 657 -122 l80 38
-50 7 c-165 24 -268 99 -311 228 -13 40 -15 72 -11 147 11 193 92 349 284 551
123 130 246 210 397 260 93 30 227 26 301 -10 194 -94 241 -293 111 -467 -85
-114 -277 -299 -342 -330 -31 -15 -32 -15 -103 35 -40 28 -78 53 -84 55 -7 2
56 71 139 154 191 188 230 259 168 299 -22 15 -32 15 -78 5 -171 -38 -371
-204 -458 -378 -50 -101 -59 -161 -30 -225 61 -138 270 -169 467 -70 67 33
130 76 387 264 120 87 222 158 229 158 12 0 87 -59 154 -122 l40 -37 -25 -25
c-37 -35 -386 -306 -530 -411 -107 -77 -280 -194 -384 -259 -169 -106 -421
-214 -561 -241 -156 -30 -349 -6 -435 55 -17 12 -32 21 -33 19 -2 -2 -14 -28
-27 -57 -28 -62 -128 -162 -186 -187 -47 -20 -189 -67 -299 -100 -95 -28 -334
-99 -535 -160 -170 -51 -438 -125 -455 -125 -7 0 -10 -21 -7 -66 15 -230 -173
-440 -458 -510 -105 -26 -386 -27 -480 -1 -207 56 -355 203 -400 396 -9 37
-11 97 -7 190 6 141 17 189 72 322 32 78 146 277 161 283 6 2 74 -10 152 -26
l141 -31 -38 -46 c-151 -181 -225 -350 -224 -506 1 -129 49 -224 145 -288 80
-52 138 -69 248 -69 160 -1 310 66 383 170 27 40 32 56 32 106 0 56 -2 60 -42
96 -56 49 -128 65 -266 57 -71 -4 -125 -13 -177 -31 -108 -37 -104 -39 -97 47
15 176 103 265 271 275 93 6 186 -9 302 -49 48 -16 107 -29 133 -29 111 0 528
101 911 222 52 16 151 47 221 68 219 66 274 103 305 206 15 49 8 101 -20 166
-23 52 -118 322 -243 693 -63 187 -137 402 -164 478 -27 75 -49 141 -49 146 0
10 225 136 250 140 3 1 101 -288 218 -642z m3602 -1199 c24 -26 24 -29 5 -54
-14 -18 -16 -18 -26 -1 -5 9 -21 17 -34 17 -21 0 -25 -5 -25 -29 0 -24 5 -29
31 -35 17 -3 56 -6 85 -6 30 0 54 -4 54 -9 0 -20 -68 -51 -113 -51 -42 0 -49
-4 -82 -45 -35 -42 -70 -64 -82 -51 -11 11 19 63 43 76 28 15 30 23 9 40 -33
28 -13 86 50 142 37 34 58 35 85 6z m-1336 -309 c5 -4 -14 -34 -43 -65 -28
-32 -51 -62 -51 -66 0 -17 -25 -7 -69 29 -25 20 -51 40 -57 45 -7 5 -27 -12
-52 -43 l-42 -51 -62 60 -62 60 50 65 49 65 52 -49 c28 -27 56 -49 61 -49 6 0
31 25 57 55 l48 55 56 -52 c31 -28 60 -55 65 -59z m1347 -169 c8 -91 14 -273
14 -405 l0 -240 -38 -110 c-22 -60 -43 -114 -47 -119 -9 -9 -12 15 -30 224
-10 109 -72 517 -85 561 -3 9 16 42 46 79 28 35 65 92 82 127 17 35 34 59 38
55 4 -4 13 -81 20 -172z m-1448 -167 c-13 -46 -10 -370 4 -384 13 -13 242 -25
294 -15 34 6 35 8 58 94 23 80 29 92 84 147 47 48 58 55 53 35 -4 -14 -18 -67
-31 -119 -14 -51 -25 -108 -25 -127 l0 -34 63 1 c34 1 88 4 121 8 l58 6 24 84
c14 46 29 92 35 102 10 19 118 104 124 97 2 -1 -7 -35 -20 -73 -22 -64 -50
-204 -43 -210 2 -2 46 -5 99 -7 l97 -3 5 70 c8 101 37 171 97 230 27 27 51 47
52 44 2 -2 0 -96 -3 -209 -7 -189 -10 -213 -38 -310 -17 -58 -31 -113 -31
-122 0 -17 -15 -18 -177 -18 -150 0 -179 2 -195 17 -17 15 -18 15 -18 0 0 -15
-18 -17 -164 -17 l-165 0 -20 26 -21 27 -21 -27 -20 -26 -163 0 c-158 0 -163
1 -185 24 -12 13 -26 36 -30 52 l-8 29 -27 -52 -26 -53 -170 0 c-154 0 -171
-2 -176 -17 -23 -67 -104 -212 -143 -253 -74 -78 -183 -92 -340 -44 -81 25
-210 90 -211 107 0 4 24 7 54 7 195 0 381 64 451 156 15 19 25 37 24 38 -2 1
-29 8 -60 15 -72 15 -136 56 -174 111 -25 36 -30 55 -33 115 -5 97 11 167 62
272 54 110 116 189 155 198 31 7 93 -14 124 -43 58 -53 123 -195 134 -291 l6
-61 101 1 c56 0 119 3 141 7 37 7 40 10 43 42 1 19 12 80 23 136 17 80 27 108
51 135 16 19 43 51 61 72 37 44 50 47 40 10z m-1220 -120 c50 -77 101 -188
116 -254 18 -74 13 -207 -9 -288 -47 -170 -159 -346 -236 -371 -60 -20 -160
-9 -234 27 -59 28 -180 120 -188 143 -2 4 18 2 44 -6 83 -25 152 -19 231 21
91 46 199 149 238 229 27 55 28 61 16 105 -6 25 -37 97 -67 160 l-55 113 42
94 c23 52 46 94 50 94 4 0 27 -30 52 -67z m-2469 -450 c16 -55 28 -145 20
-152 -5 -5 -72 -27 -148 -50 -153 -46 -275 -102 -341 -156 l-42 -35 -12 88
c-16 126 -16 124 32 153 74 47 119 66 262 112 203 65 220 68 229 40z m308
-1072 c28 -18 57 -48 75 -78 l28 -48 3 -344 c4 -417 1 -433 -72 -506 -39 -39
-61 -53 -91 -58 -22 -4 -200 -7 -396 -7 -409 0 -423 2 -487 75 -21 24 -44 61
-50 83 -8 27 -12 148 -12 379 0 277 3 348 15 384 18 52 46 86 99 123 l39 26
401 0 402 0 46 -29z m3518 -166 c28 -69 71 -112 130 -129 l45 -13 3 -77 c3
-67 1 -76 -15 -76 -39 0 -95 22 -137 55 l-44 33 -4 -161 c-4 -173 -8 -190 -64
-257 -54 -63 -183 -90 -265 -56 -76 32 -139 132 -139 220 0 50 18 108 31 100
5 -3 6 1 3 9 -3 8 9 28 25 46 23 25 36 31 53 26 15 -4 19 -3 10 3 -18 12 26
29 91 35 l47 5 0 -68 0 -67 -37 -7 c-60 -10 -88 -37 -88 -85 0 -31 7 -47 30
-71 31 -32 61 -37 111 -20 57 20 59 29 62 333 l3 277 63 0 64 0 22 -55z
m-2844 -91 c-3 -9 -6 -24 -6 -34 0 -16 -7 -17 -55 -13 l-55 5 0 -29 c0 -27 2
-28 40 -25 40 4 40 4 40 -32 0 -35 -1 -36 -40 -36 l-40 0 0 -40 0 -40 -40 0
-40 0 0 130 0 130 101 0 c88 0 100 -2 95 -16z m109 -114 l0 -125 -42 -3 -43
-3 0 131 0 131 43 -3 42 -3 0 -125z m245 94 l0 -36 -55 4 -55 5 0 -30 c0 -26
3 -29 27 -24 39 7 53 -2 53 -34 0 -27 -3 -29 -40 -29 l-40 0 0 -40 0 -40 -40
0 -40 0 0 130 0 130 95 0 95 0 0 -36z m201 -84 c15 -63 28 -121 29 -127 0 -8
-14 -13 -40 -13 -33 0 -40 3 -40 20 0 17 -7 20 -40 20 -33 0 -40 -3 -40 -20 0
-17 -7 -20 -41 -20 -27 0 -39 4 -37 13 2 6 16 65 33 130 l29 118 59 -3 60 -3
28 -115z m-701 -255 c7 -25 16 -45 20 -45 5 0 15 19 22 43 11 30 21 43 36 45
16 3 22 -2 22 -16 0 -10 3 -47 6 -81 6 -51 4 -61 -9 -61 -11 0 -17 15 -22 51
l-7 51 -19 -41 c-10 -22 -23 -41 -29 -41 -6 0 -19 19 -30 43 l-19 42 0 -52
c-1 -44 -4 -53 -18 -53 -16 0 -18 9 -15 67 4 84 7 93 30 93 14 0 23 -12 32
-45z m257 19 c21 -21 25 -32 20 -66 -6 -48 -30 -69 -76 -65 -50 3 -78 44 -65
94 15 63 76 81 121 37z m138 16 c24 -9 27 -15 22 -43 -2 -17 1 -40 7 -49 20
-33 -4 -53 -68 -56 l-56 -3 0 74 c0 40 3 77 7 80 10 10 58 8 88 -3z m95 -70
c0 -64 -3 -80 -15 -80 -12 0 -15 16 -15 80 0 64 3 80 15 80 12 0 15 -16 15
-80z m74 10 c1 -64 1 -65 29 -63 18 1 27 -3 27 -13 0 -10 -13 -14 -45 -14
l-45 0 0 81 c0 69 2 80 16 77 13 -2 17 -16 18 -68z m176 55 c0 -10 -11 -15
-35 -15 -28 0 -35 -4 -35 -20 0 -16 7 -20 36 -20 45 0 41 -24 -5 -28 -45 -5
-39 -37 7 -37 19 0 32 -5 32 -12 0 -9 -16 -13 -50 -13 l-50 0 0 80 0 80 50 0
c38 0 50 -4 50 -15z m-1265 -648 c23 -13 52 -43 70 -71 l30 -49 1 -271 c1
-149 -2 -287 -6 -306 -4 -19 -8 -29 -9 -22 -2 20 -31 -12 -31 -35 0 -10 -5
-25 -10 -33 -8 -12 -10 -9 -10 13 0 27 -15 37 -22 15 -3 -7 -13 -13 -24 -13
-10 0 -20 -8 -22 -17 -3 -14 3 -18 22 -18 32 0 35 -27 4 -32 -34 -5 -37 -38
-4 -38 19 0 26 -5 26 -18 0 -15 -9 -19 -45 -20 l-45 -2 0 71 c0 44 -4 68 -10
64 -5 -3 -10 -35 -10 -71 0 -57 -2 -64 -20 -64 -17 0 -20 7 -20 41 0 51 -23
49 -24 -2 -1 -27 -5 -34 -21 -34 -18 0 -20 8 -23 95 -2 98 -11 129 -48 167
-39 39 -59 -12 -29 -71 11 -21 14 -43 9 -72 -5 -37 -10 -43 -33 -46 -21 -2
-27 -9 -29 -33 -4 -30 -19 -48 -34 -39 -4 3 -8 43 -8 90 l0 84 40 0 c22 0 40
5 40 10 0 6 -4 10 -10 10 -20 0 -10 63 16 97 l25 33 35 -26 c19 -15 41 -42 50
-60 9 -18 24 -36 34 -39 10 -3 30 -17 44 -30 18 -17 26 -20 26 -10 0 14 24 20
58 16 14 -2 16 18 2 39 -8 13 -10 12 -10 -4 0 -19 -1 -19 -20 -1 -14 13 -17
22 -10 29 19 19 10 42 -32 88 -37 40 -47 45 -74 41 -18 -3 -35 0 -38 6 -4 6
35 55 91 112 54 55 99 104 101 108 2 5 -4 11 -13 15 -11 4 -35 -9 -69 -39 -57
-48 -81 -59 -50 -22 l19 22 -22 -18 c-13 -11 -19 -25 -16 -34 5 -12 2 -13 -13
-6 -24 13 -37 9 -101 -33 -28 -19 -56 -34 -61 -34 -6 0 -15 13 -20 29 -10 27
-8 30 19 40 16 5 29 15 29 21 0 12 -49 33 -64 27 -6 -3 -14 -5 -18 -6 -5 -1
-36 -17 -71 -36 -66 -36 -87 -42 -87 -25 0 6 6 10 13 10 6 0 20 14 29 30 9 17
13 30 7 30 -6 0 -7 5 -4 10 3 6 2 10 -3 10 -11 0 -9 27 2 53 5 9 5 28 2 42 -4
14 -2 25 3 25 6 0 11 -21 13 -47 4 -61 22 -66 37 -9 17 68 14 120 -9 149 -20
25 -20 25 -1 20 11 -3 21 -12 23 -21 3 -14 7 -13 26 6 16 16 38 25 67 27 58 4
111 35 108 63 -2 12 3 23 10 23 6 1 -4 5 -23 9 -23 5 6 8 85 9 107 1 124 -2
160 -22z m2555 1 c49 -25 84 -70 100 -127 13 -47 13 -704 0 -751 -13 -49 -66
-109 -114 -131 -38 -17 -73 -19 -417 -19 -313 0 -384 3 -420 15 -53 19 -84 47
-112 100 -19 38 -21 61 -25 375 -5 380 0 429 51 487 64 72 65 73 502 73 386 0
391 0 435 -22z m1292 1 c23 -12 50 -31 60 -43 47 -53 48 -64 48 -461 0 -353
-1 -378 -20 -414 -24 -48 -70 -87 -118 -101 -22 -6 -190 -10 -427 -10 -385 0
-391 0 -435 23 -26 13 -57 40 -75 65 l-30 44 -3 369 c-2 232 1 383 7 407 14
51 67 109 116 126 32 12 121 15 438 15 386 1 399 0 439 -20z m-2909 -24 c45
-19 94 -60 112 -95 12 -23 12 -30 1 -45 -12 -17 -14 -16 -29 15 -10 18 -17 39
-17 46 0 18 -54 61 -96 74 -20 7 -54 10 -76 7 -39 -5 -72 -33 -60 -51 3 -5 -2
-7 -11 -3 -15 6 -22 -3 -18 -25 3 -22 -21 -58 -38 -58 -23 0 -57 -54 -66 -104
-5 -25 -2 -41 10 -58 16 -23 16 -22 10 22 -8 63 26 124 73 128 25 3 31 0 26
-12 -3 -9 -2 -16 4 -16 6 0 8 -9 5 -20 -4 -14 0 -20 11 -20 10 0 14 -5 11 -10
-4 -6 -11 -8 -16 -4 -17 10 -97 -6 -102 -21 -3 -7 1 -21 10 -32 13 -16 14 -16
9 0 -5 16 -4 16 25 1 17 -9 40 -13 51 -11 16 5 18 2 11 -16 -4 -12 -7 -35 -8
-51 0 -28 -5 -33 -55 -55 -22 -9 -21 -10 13 -5 25 4 37 2 37 -5 0 -7 5 -9 10
-6 6 3 10 1 10 -4 0 -6 -4 -11 -8 -11 -5 0 -9 -6 -9 -14 0 -8 6 -12 14 -9 7 3
13 -2 13 -10 0 -9 3 -22 6 -31 4 -10 1 -16 -9 -16 -12 0 -14 -9 -10 -41 6 -38
5 -40 -13 -29 -39 25 -80 102 -109 207 -10 34 -22 60 -26 57 -5 -3 -9 29 -9
70 0 66 -2 76 -17 76 -11 0 -14 3 -7 8 6 4 14 25 17 47 9 54 34 85 97 118 42
22 66 27 120 27 37 0 83 -7 103 -15z m-1652 -168 c-4 -31 -4 -63 1 -70 4 -6 5
-22 1 -34 -4 -17 -1 -23 12 -23 9 0 13 -5 10 -10 -4 -6 0 -22 9 -35 9 -13 16
-31 16 -38 0 -8 10 -18 23 -21 19 -6 15 -9 -26 -22 -53 -17 -100 -69 -117
-134 -11 -41 -42 -85 -70 -100 -14 -7 -29 -5 -55 7 -29 14 -40 15 -56 5 -19
-12 -19 -8 -18 255 1 148 4 256 6 241 4 -27 23 -40 23 -16 0 6 3 8 7 5 3 -4
12 -2 20 4 9 8 13 8 13 0 0 -7 8 -8 23 -2 12 5 51 9 87 9 52 1 68 5 80 20 8
11 15 19 16 18 1 0 -2 -27 -5 -59z m1297 -64 c1 -32 7 -73 13 -92 6 -19 9 -58
6 -88 -4 -34 0 -72 9 -101 16 -55 17 -62 4 -42 -8 12 -10 11 -10 -7 0 -12 5
-25 10 -28 6 -3 10 -11 10 -17 0 -15 -40 37 -41 54 0 7 -4 4 -9 -7 -8 -19 -9
-19 -9 2 -1 12 3 24 8 27 5 3 11 15 14 26 7 28 -10 15 -29 -22 -16 -30 -14
-79 3 -125 6 -16 5 -16 -11 -4 -9 8 -15 20 -12 28 3 7 1 23 -4 35 -7 19 -9 16
-9 -20 -1 -58 13 -82 48 -82 26 0 29 -4 40 -57 18 -91 15 -113 -14 -113 -19 0
-25 6 -26 23 l-2 22 -4 -22 c-3 -18 -11 -23 -34 -23 -24 0 -29 4 -25 18 12 45
17 142 7 142 -6 0 -11 -13 -11 -30 0 -25 -4 -30 -25 -30 -18 0 -25 5 -25 20 0
11 -4 20 -10 20 -5 0 -10 -25 -10 -55 0 -30 5 -55 10 -55 6 0 10 11 10 25 0
18 5 25 20 25 26 0 34 -19 21 -53 -9 -23 -16 -27 -49 -27 -21 0 -43 5 -50 12
-18 18 -16 142 3 158 14 11 13 14 -2 25 -9 7 -14 19 -10 28 3 9 1 17 -6 20
-14 4 -15 145 -1 155 6 4 16 30 23 57 7 28 15 58 18 67 2 10 10 24 16 31 7 7
17 22 23 32 6 11 20 24 32 30 12 5 22 13 22 17 0 5 7 8 15 8 9 0 12 6 9 15 -4
11 -2 13 9 10 8 -4 17 1 20 9 10 26 12 19 15 -41z m571 -35 c1 9 15 3 40 -17
21 -17 43 -31 47 -31 21 -1 63 -48 74 -85 16 -48 21 -98 11 -113 -4 -6 -33 15
-74 53 -37 35 -78 65 -90 67 -29 4 -45 56 -39 133 l5 60 12 -40 c7 -22 13 -34
14 -27z m-552 -20 c-2 -13 -4 -3 -4 22 0 25 2 35 4 23 2 -13 2 -33 0 -45z m33
-83 c0 -8 -2 -15 -4 -15 -2 0 -6 7 -10 15 -3 8 -1 15 4 15 6 0 10 -7 10 -15z
m-816 -13 c3 -5 -28 -42 -68 -83 -96 -97 -168 -161 -98 -89 28 31 52 61 52 68
0 7 8 16 17 19 21 8 62 54 63 70 0 6 6 14 13 16 6 3 13 6 14 6 1 1 4 -3 7 -7z
m-268 -38 c-4 -10 1 -22 11 -30 17 -12 17 -14 -3 -35 -25 -24 -48 -17 -41 12
4 13 0 19 -11 19 -12 1 -9 8 13 25 35 29 39 30 31 9z m1251 -16 c-3 -8 -6 -5
-6 6 -1 11 2 17 5 13 3 -3 4 -12 1 -19z m-1397 -8 c0 -5 -5 -10 -11 -10 -5 0
-7 5 -4 10 3 6 8 10 11 10 2 0 4 -4 4 -10z m-100 -20 c-6 -11 -13 -20 -16 -20
-2 0 0 9 6 20 6 11 13 20 16 20 2 0 0 -9 -6 -20z m45 -10 c-10 -11 -21 -18
-23 -15 -3 3 3 12 14 20 27 20 30 18 9 -5z m139 -3 c22 -22 30 -57 12 -57 -8
0 -22 -8 -32 -17 -9 -9 -26 -18 -38 -20 -19 -3 -19 -1 6 21 15 13 33 26 40 29
10 4 11 7 1 18 -8 8 -13 9 -13 2 0 -6 -12 -18 -26 -28 -26 -16 -26 -16 -19 7
8 26 34 58 47 58 5 0 15 -6 22 -13z m1746 3 c0 -5 -5 -10 -11 -10 -5 0 -7 5
-4 10 3 6 8 10 11 10 2 0 4 -4 4 -10z m-1828 -12 c3 -7 -2 -29 -10 -48 -12
-27 -16 -31 -20 -17 -2 11 -10 16 -18 13 -7 -3 -18 3 -23 12 -9 15 -10 14 -11
-7 0 -18 -3 -22 -11 -14 -15 15 -5 30 39 53 44 23 49 24 54 8z m1908 -110 c0
-29 -15 -21 -28 16 -7 19 -19 37 -27 40 -8 3 -15 11 -15 18 0 6 16 -3 35 -22
19 -19 35 -42 35 -52z m-1775 52 c-3 -5 -11 -10 -16 -10 -6 0 -7 5 -4 10 3 6
11 10 16 10 6 0 7 -4 4 -10z m-178 -32 c-3 -8 -6 -5 -6 6 -1 11 2 17 5 13 3
-3 4 -12 1 -19z m143 8 c0 -3 -4 -8 -10 -11 -5 -3 -10 -1 -10 4 0 6 5 11 10
11 6 0 10 -2 10 -4z m1780 -28 c0 -6 -7 -5 -15 2 -8 7 -15 17 -15 22 0 6 7 5
15 -2 8 -7 15 -17 15 -22z m-1873 -35 c-3 -10 -5 -4 -5 12 0 17 2 24 5 18 2
-7 2 -21 0 -30z m1348 23 c17 -17 7 -30 -12 -15 -13 12 -18 29 -7 29 3 0 12
-6 19 -14z m-1379 -42 c-27 -19 -52 -19 -34 0 7 8 16 12 21 9 4 -2 7 4 7 13 0
15 2 16 13 5 10 -10 8 -15 -7 -27z m1359 -14 c4 -17 13 -30 21 -30 11 0 14
-16 14 -65 0 -51 3 -65 15 -65 8 0 15 -9 15 -20 0 -17 -7 -20 -40 -20 l-40 0
0 92 c0 50 -3 88 -7 85 -7 -8 -33 11 -33 25 0 5 8 4 19 -1 16 -9 17 -7 13 16
-7 37 15 21 23 -17z m551 -87 c-9 -26 -16 -62 -16 -80 0 -29 -3 -33 -25 -33
-21 0 -25 5 -25 33 0 32 -27 144 -29 120 -1 -7 -8 -13 -16 -13 -12 0 -15 -14
-15 -70 0 -68 -1 -70 -25 -70 -24 0 -25 2 -25 70 0 56 -3 70 -15 70 -8 0 -15
7 -15 15 0 12 16 15 80 15 76 0 80 -1 81 -22 l2 -23 4 22 c3 13 13 23 26 25
30 4 31 -4 13 -59z m-606 -8 c0 -51 3 -65 15 -65 8 0 15 -9 15 -20 0 -17 -7
-20 -40 -20 l-40 0 0 85 c0 84 0 85 25 85 24 0 25 -2 25 -65z m258 -14 c3 -85
-1 -91 -65 -91 l-43 0 0 86 0 85 53 -3 52 -3 3 -74z m74 7 l2 -73 3 73 c4 69
5 72 28 72 24 0 25 -2 25 -73 0 -82 -9 -97 -55 -97 -46 0 -55 15 -55 97 0 71
1 73 25 73 24 0 25 -2 27 -72z m-1754 35 c2 -8 -5 -13 -17 -13 -14 0 -21 -6
-21 -20 0 -11 7 -20 15 -20 8 0 15 -7 15 -15 0 -8 -7 -15 -15 -15 -10 0 -15
-10 -15 -34 0 -25 -5 -35 -20 -39 -19 -5 -20 0 -20 85 l0 89 37 -3 c20 -2 38
-9 41 -15z m105 0 c15 -18 13 -68 -4 -78 -4 -3 -1 -21 7 -40 7 -19 10 -36 6
-39 -14 -9 -36 12 -49 46 l-11 33 -1 -37 c-1 -31 -5 -38 -21 -38 -18 0 -20 7
-20 85 l0 85 38 0 c24 0 45 -7 55 -17z m97 2 c0 -8 -7 -15 -15 -15 -8 0 -15
-9 -15 -20 0 -13 7 -20 20 -20 22 0 23 -1 14 -24 -3 -8 -12 -12 -20 -9 -9 3
-14 -2 -14 -16 0 -12 6 -21 15 -21 17 0 20 -26 4 -35 -5 -4 -21 -4 -35 -1 -23
6 -24 10 -24 91 l0 85 35 0 c24 0 35 -5 35 -15z m103 -5 c4 -17 1 -19 -19 -14
-20 5 -24 2 -24 -15 0 -15 6 -21 23 -21 14 0 24 -6 24 -15 0 -9 -10 -15 -24
-15 -16 0 -23 -6 -23 -20 0 -13 7 -20 20 -20 25 0 27 -30 3 -31 -10 0 -28 -2
-40 -5 -22 -4 -23 -2 -23 86 l0 90 39 0 c30 0 40 -4 44 -20z m-518 -50 c3 -5
0 -10 -9 -10 -8 0 -17 -6 -19 -12 -3 -7 -6 -3 -6 10 -1 22 22 31 34 12z m735
-10 c0 -5 -4 -10 -9 -10 -6 0 -13 5 -16 10 -3 6 1 10 9 10 9 0 16 -4 16 -10z
m271 -23 c-10 -9 -11 -8 -5 6 3 10 9 15 12 12 3 -3 0 -11 -7 -18z m-901 -17
c0 -5 -5 -10 -11 -10 -5 0 -7 5 -4 10 3 6 8 10 11 10 2 0 4 -4 4 -10z m600
-25 c0 -14 -4 -25 -10 -25 -11 0 -14 33 -3 43 11 11 13 8 13 -18z m3957 -255
c-11 -18 -27 -27 -27 -15 0 13 25 43 32 39 4 -3 2 -14 -5 -24z m-57 -118 c0
-10 -22 -32 -32 -32 -5 0 -3 9 4 20 13 20 28 27 28 12z m-86 -156 c-6 -16 -24
-23 -24 -8 0 10 22 33 27 28 2 -2 1 -11 -3 -20z m-89 -116 c-20 -23 -29 -21
-19 4 3 9 13 16 22 16 13 0 12 -3 -3 -20z m-2243 -57 c75 -44 89 -153 27 -205
-22 -19 -28 -28 -17 -28 9 0 28 -14 43 -32 24 -29 27 -38 23 -92 -4 -55 -8
-62 -47 -98 -24 -20 -58 -40 -77 -44 -61 -11 -156 0 -206 26 -27 13 -48 25
-48 26 0 15 36 74 45 74 6 0 28 -9 50 -20 47 -24 86 -25 125 -5 35 18 48 57
30 90 -14 27 -37 35 -97 35 l-43 0 0 45 0 45 46 0 c63 0 84 13 84 53 0 18 -5
38 -12 45 -16 16 -97 15 -128 -3 -37 -21 -55 -18 -68 10 -17 36 -15 42 14 62
68 44 195 52 256 16z m524 -4 c43 -26 64 -66 64 -119 0 -33 -6 -48 -30 -72
-36 -35 -35 -34 -11 -41 37 -9 63 -66 58 -126 -4 -49 -8 -59 -42 -88 -49 -42
-102 -56 -190 -51 -117 8 -177 59 -177 149 0 51 26 99 63 120 20 10 19 11 -5
30 -14 11 -30 38 -36 59 -19 70 25 133 110 159 52 16 155 5 196 -20z m1252 7
c76 -39 93 -156 31 -208 -23 -19 -28 -28 -17 -28 9 0 28 -14 42 -31 21 -24 26
-41 26 -84 0 -63 -27 -103 -93 -137 -55 -27 -181 -22 -244 10 -24 13 -43 25
-43 28 0 6 40 84 43 84 1 0 24 -11 51 -25 57 -29 85 -31 125 -10 46 23 54 67
21 103 -17 17 -32 22 -75 22 l-55 0 0 45 0 45 47 0 c71 0 105 46 70 94 -11 15
-23 17 -63 14 -27 -3 -64 -11 -81 -19 -30 -12 -34 -11 -48 6 -28 38 -19 61 33
83 26 11 56 22 67 25 35 10 131 0 163 -17z m-2682 -1 c4 -9 -27 -75 -70 -154
-42 -77 -76 -142 -76 -145 0 -3 25 -6 55 -6 l55 0 0 54 0 54 47 16 c26 9 50
16 55 16 4 0 8 -31 8 -70 l0 -70 46 0 c36 0 45 -3 41 -14 -3 -8 -9 -31 -13
-50 -6 -33 -9 -36 -40 -36 -34 0 -34 -1 -34 -45 l0 -45 -55 0 -55 0 0 45 0 45
-119 0 -119 0 -6 26 c-5 20 2 45 26 93 78 154 151 281 166 291 27 15 82 12 88
-5z m1852 5 c9 0 12 -57 12 -250 l0 -250 -60 0 -60 0 0 190 0 189 -55 -21
c-31 -11 -57 -19 -59 -17 -2 2 -6 21 -10 42 l-7 37 93 46 c56 27 101 43 113
40 11 -3 26 -6 33 -6z m380 -248 l2 -252 -55 0 -55 0 0 191 c0 178 -1 191 -17
184 -64 -26 -103 -38 -106 -35 -2 3 -7 22 -10 43 l-6 38 70 31 c38 17 69 34
69 39 0 7 70 17 95 14 6 -1 11 -95 13 -253z m-2728 243 c0 -6 -57 -113 -116
-217 -24 -43 -44 -80 -44 -83 0 -3 25 -5 55 -5 l54 0 3 56 3 57 45 13 c25 8
48 14 53 14 4 0 7 -31 7 -70 l0 -70 45 0 c49 0 51 -3 33 -61 -10 -35 -14 -39
-45 -39 -33 0 -33 -1 -33 -45 l0 -45 -55 0 -55 0 0 45 0 45 -120 0 -120 0 0
38 c0 37 44 129 152 320 l29 52 55 0 c30 0 54 -2 54 -5z m950 -245 l0 -250
-55 0 -55 0 0 190 0 189 -55 -21 c-31 -11 -58 -19 -61 -16 -3 3 -7 22 -11 41
l-5 36 78 40 c53 26 93 40 122 40 l42 1 0 -250z m2588 190 c-7 -11 -19 -20
-27 -20 -11 0 -10 5 4 20 10 11 22 20 27 20 4 0 3 -9 -4 -20z m-131 -97 c-9
-9 -20 -13 -24 -9 -4 4 -1 11 7 16 25 16 35 11 17 -7z"/>
<path d="M6058 6220 c-59 -36 27 -122 138 -137 45 -6 46 -6 39 18 -10 33 -40
82 -64 103 -24 21 -89 31 -113 16z"/>
<path d="M2627 4840 c-46 -14 -98 -60 -118 -104 -16 -36 -18 -65 -17 -221 1
-179 1 -180 9 -75 10 119 17 146 19 80 1 -25 5 -36 8 -25 l5 20 8 -20 c6 -15
8 -9 10 25 1 31 3 36 6 18 4 -27 4 -27 83 -25 l80 2 31 -37 c24 -30 37 -38 64
-38 27 0 34 -5 44 -30 6 -16 16 -43 22 -60 8 -22 20 -31 44 -36 28 -5 36 -14
60 -67 26 -58 28 -72 32 -227 2 -91 6 -171 8 -177 2 -7 16 -13 30 -13 24 0 25
2 25 68 0 37 -5 111 -10 165 l-10 99 45 97 c25 54 45 104 45 112 -1 20 -29
-34 -66 -126 -18 -44 -36 -80 -40 -80 -12 0 -30 66 -26 96 4 24 7 27 23 18 15
-8 19 -6 19 8 0 13 2 15 9 5 5 -9 16 3 34 38 15 29 27 59 27 68 0 20 40 80 59
87 10 4 10 0 -3 -17 -9 -13 -21 -32 -27 -43 -10 -16 -7 -16 15 4 14 14 26 19
26 13 0 -7 -8 -19 -18 -28 -12 -10 -17 -25 -14 -44 6 -40 27 -56 29 -23 0 16
-2 21 -7 14 -5 -9 -9 -5 -12 12 -4 21 -1 25 16 23 26 -3 79 -27 88 -41 4 -5
10 -6 14 -3 3 4 20 0 37 -8 23 -12 27 -18 16 -25 -8 -5 -23 -6 -34 -4 -11 3
-14 2 -7 -1 6 -3 12 -11 12 -18 0 -6 13 -19 29 -29 16 -9 43 -33 60 -52 17
-20 31 -32 31 -27 0 4 -5 13 -12 20 -8 8 -8 15 3 29 12 16 12 17 -2 6 -13 -11
-20 -8 -39 12 -13 14 -29 25 -37 25 -17 0 -17 30 0 31 6 0 24 2 40 4 15 2 25
0 22 -6 -4 -5 -13 -9 -21 -9 -19 0 -18 -7 7 -33 17 -17 21 -18 16 -4 -4 9 -2
17 3 17 6 0 10 -4 10 -10 0 -5 3 -9 8 -8 4 1 20 -4 35 -10 16 -7 32 -12 37
-12 12 0 19 -46 23 -135 2 -38 4 73 5 249 1 227 -2 330 -10 360 -18 58 -77
112 -139 125 -59 13 -720 14 -762 1z m485 -89 c29 -19 49 -40 57 -61 9 -28 9
-31 -4 -20 -8 7 -15 18 -15 25 0 13 -21 25 -43 25 -7 0 -6 -4 3 -10 13 -8 13
-10 -2 -10 -9 0 -18 6 -21 13 -3 9 -7 9 -20 -2 -19 -15 -91 -20 -104 -8 -4 5
-1 12 7 17 8 6 11 10 5 10 -5 0 -17 -5 -25 -10 -13 -9 -13 -11 0 -20 8 -5 21
-10 28 -10 23 0 12 -16 -27 -38 -41 -23 -71 -28 -71 -12 0 6 -3 9 -7 9 -5 -1
-23 -1 -42 0 -33 1 -34 2 -15 16 18 14 18 14 0 15 -14 0 -10 8 20 36 55 50 89
63 165 64 55 0 72 -4 111 -29z m-120 -114 c-6 -7 -9 -23 -5 -35 6 -24 2 -25
-46 -16 -41 8 -39 19 7 43 43 24 59 26 44 8z m-102 -43 c-34 -7 -158 -9 -147
-2 7 4 46 7 87 7 41 -1 68 -3 60 -5z m-125 -34 c3 -5 -1 -10 -9 -10 -9 0 -16
5 -16 10 0 6 4 10 9 10 6 0 13 -4 16 -10z m142 -49 c33 -18 46 -20 62 -12 28
15 36 14 20 -5 -15 -19 -48 -14 -116 17 -35 16 -60 20 -99 17 -32 -3 -51 -1
-47 5 10 17 135 1 180 -22z m308 10 c3 -5 1 -12 -5 -16 -5 -3 -10 1 -10 9 0
18 6 21 15 7z"/>
<path d="M3224 4304 c37 -36 76 -105 76 -131 0 -16 4 -33 9 -38 11 -12 19
-145 9 -138 -7 4 -12 -20 -9 -40 1 -4 -6 -10 -14 -13 -12 -5 -13 -9 -4 -20 9
-11 7 -14 -12 -15 -13 0 -18 -3 -11 -6 6 -2 12 -11 12 -18 0 -7 -6 -16 -12
-19 -7 -3 -1 -4 15 -1 15 3 27 1 27 -5 0 -6 -32 -10 -77 -11 -53 0 -72 -3 -58
-9 45 -20 214 -6 229 18 3 5 1 14 -4 21 -11 19 -57 6 -62 -17 -3 -9 -4 10 -4
43 1 33 4 65 7 70 6 11 -5 136 -19 208 -7 37 -20 59 -53 93 -24 24 -47 44 -52
44 -5 0 -1 -7 7 -16z"/>
<path d="M3280 4300 c8 -5 20 -10 25 -10 6 0 3 5 -5 10 -8 5 -19 10 -25 10 -5
0 -3 -5 5 -10z"/>
<path d="M2855 4289 c-42 -22 -87 -98 -95 -163 -24 -186 -31 -202 -84 -213
-31 -6 -32 -13 -3 -13 34 0 34 -11 2 -31 l-26 -15 26 -14 c22 -12 27 -11 47 6
19 17 21 17 15 2 -5 -15 -1 -18 23 -18 l29 0 -4 69 c-2 39 -8 79 -14 90 -13
23 -15 95 -3 87 5 -3 6 8 4 24 -7 47 17 98 69 150 50 50 53 58 14 39z"/>
<path d="M3350 3937 c0 -14 5 -29 10 -32 7 -4 8 3 4 22 -9 38 -14 42 -14 10z"/>
<path d="M4590 4516 c0 -7 -3 -28 -6 -45 -6 -27 -4 -31 16 -31 20 0 22 4 16
31 -3 17 -6 38 -6 45 0 8 -4 14 -10 14 -5 0 -10 -6 -10 -14z"/>
<path d="M4171 4226 c-7 -8 -11 -30 -9 -48 3 -29 6 -33 33 -33 27 0 30 4 33
33 3 35 -11 62 -33 62 -7 0 -18 -6 -24 -14z"/>
<path d="M4330 4220 c0 -16 5 -21 23 -18 12 2 22 10 22 18 0 8 -10 16 -22 18
-18 3 -23 -2 -23 -18z"/>
<path d="M4330 4153 c0 -20 4 -24 22 -21 33 4 35 34 3 40 -21 4 -25 2 -25 -19z"/>
<path d="M3153 3188 c-13 -6 -23 -15 -23 -20 0 -7 55 15 69 28 9 8 -25 2 -46
-8z"/>
<path d="M3310 2840 c0 -25 4 -39 10 -35 6 3 10 19 10 35 0 16 -4 32 -10 35
-6 4 -10 -10 -10 -35z"/>
<path d="M3140 2820 c0 -13 7 -20 20 -20 11 0 20 3 20 8 0 4 -9 13 -20 20 -18
11 -20 10 -20 -8z"/>
<path d="M5460 3482 c-196 -51 -318 -214 -308 -411 6 -117 61 -213 167 -289
121 -88 342 -96 474 -19 60 36 131 113 164 177 25 50 28 65 28 160 0 100 -2
108 -34 167 -64 118 -180 202 -308 223 -78 13 -107 12 -183 -8z m182 -192 c78
-11 178 -43 226 -72 26 -16 32 -26 30 -46 -5 -44 -29 -49 -94 -20 -118 53
-272 70 -414 47 -74 -13 -100 -5 -100 30 0 28 22 37 165 65 38 7 120 6 187 -4z
m58 -175 c99 -31 140 -54 140 -81 0 -37 -22 -39 -102 -10 -135 47 -214 54
-365 30 -35 -5 -44 -4 -49 11 -12 29 10 49 67 62 70 16 238 9 309 -12z m-94
-116 c77 -13 144 -38 169 -61 17 -16 18 -20 5 -33 -14 -13 -24 -12 -90 12 -63
22 -91 26 -180 25 -58 0 -118 -2 -135 -4 -24 -2 -31 1 -33 19 -2 16 4 23 30
31 76 24 144 27 234 11z"/>
<path d="M6868 2813 c6 -2 18 -2 25 0 6 3 1 5 -13 5 -14 0 -19 -2 -12 -5z"/>
<path d="M4032 2805 c0 -16 2 -22 5 -12 2 9 2 23 0 30 -3 6 -5 -1 -5 -18z"/>
<path d="M3001 3114 c0 -11 3 -14 6 -6 3 7 2 16 -1 19 -3 4 -6 -2 -5 -13z"/>
<path d="M2835 3080 c-3 -5 1 -10 9 -10 9 0 16 5 16 10 0 6 -4 10 -9 10 -6 0
-13 -4 -16 -10z"/>
<path d="M4350 2803 c0 -41 3 -54 10 -43 13 20 13 87 0 95 -6 4 -10 -16 -10
-52z"/>
<path d="M2780 2820 c0 -11 4 -20 8 -20 4 0 8 9 9 20 1 11 -2 20 -8 20 -5 0
-9 -9 -9 -20z"/>
<path d="M5062 1948 c-31 -15 -39 -54 -17 -78 24 -26 86 -27 108 -2 49 54 -20
114 -91 80z"/>
<path d="M5060 1747 c-14 -7 -31 -25 -38 -40 -11 -22 -10 -31 2 -55 17 -33 34
-42 76 -42 42 0 59 9 76 42 18 35 11 61 -23 88 -29 23 -57 25 -93 7z"/>
</g>
</svg>
